<svg width="30" height="30" viewBox="0 0 30 30" fill="none" xmlns="http://www.w3.org/2000/svg">
<path d="M10.0018 15C10.0018 12.2387 12.2397 9.9996 15.001 9.9996C17.7623 9.9996 20.0014 12.2387 20.0014 15C20.0014 17.7613 17.7623 20.0004 15.001 20.0004C12.2397 20.0004 10.0018 17.7613 10.0018 15ZM7.29866 15C7.29866 19.254 10.747 22.7023 15.001 22.7023C19.255 22.7023 22.7033 19.254 22.7033 15C22.7033 10.746 19.255 7.29768 15.001 7.29768C10.747 7.29768 7.29866 10.746 7.29866 15ZM21.2082 6.99228C21.2081 7.34829 21.3135 7.69634 21.5112 7.99243C21.7088 8.28852 21.9899 8.51934 22.3187 8.65571C22.6476 8.79208 23.0095 8.82787 23.3587 8.75855C23.7079 8.68924 24.0287 8.51793 24.2805 8.2663C24.5323 8.01467 24.7039 7.69401 24.7735 7.34487C24.8431 6.99573 24.8076 6.6338 24.6715 6.30483C24.5354 5.97587 24.3048 5.69466 24.0088 5.49675C23.7129 5.29885 23.3649 5.19314 23.0089 5.193H23.0082C22.531 5.19322 22.0734 5.38284 21.7359 5.7202C21.3984 6.05756 21.2086 6.51508 21.2082 6.99228ZM8.94098 27.2096C7.47854 27.143 6.68366 26.8994 6.15542 26.6936C5.4551 26.421 4.95542 26.0963 4.43006 25.5716C3.9047 25.047 3.5795 24.5478 3.30806 23.8475C3.10214 23.3195 2.85854 22.5244 2.79206 21.0619C2.71934 19.4808 2.70482 19.0058 2.70482 15.0001C2.70482 10.9944 2.72054 10.5208 2.79206 8.93832C2.85866 7.47588 3.10406 6.68232 3.30806 6.15276C3.5807 5.45244 3.90542 4.95276 4.43006 4.4274C4.9547 3.90204 5.4539 3.57684 6.15542 3.3054C6.68342 3.09948 7.47854 2.85588 8.94098 2.7894C10.5221 2.71668 10.9971 2.70216 15.001 2.70216C19.0049 2.70216 19.4803 2.71788 21.0628 2.7894C22.5252 2.856 23.3188 3.1014 23.8483 3.3054C24.5487 3.57684 25.0483 3.90276 25.5737 4.4274C26.0991 4.95204 26.4231 5.45244 26.6957 6.15276C26.9016 6.68076 27.1452 7.47588 27.2117 8.93832C27.2844 10.5208 27.2989 10.9944 27.2989 15.0001C27.2989 19.0058 27.2844 19.4795 27.2117 21.0619C27.1451 22.5244 26.9003 23.3192 26.6957 23.8475C26.4231 24.5478 26.0983 25.0475 25.5737 25.5716C25.0491 26.0958 24.5487 26.421 23.8483 26.6936C23.3203 26.8996 22.5252 27.1432 21.0628 27.2096C19.4817 27.2824 19.0067 27.2969 15.001 27.2969C10.9953 27.2969 10.5216 27.2824 8.94098 27.2096ZM8.81678 0.09084C7.21994 0.16356 6.12878 0.41676 5.17586 0.78756C4.18898 1.17048 3.35354 1.6842 2.5187 2.51772C1.68386 3.35124 1.17146 4.188 0.788536 5.17488C0.417737 6.1284 0.164537 7.21896 0.0918166 8.8158C0.0178966 10.4152 0.000976562 10.9265 0.000976562 15C0.000976562 19.0735 0.0178966 19.5848 0.0918166 21.1842C0.164537 22.7812 0.417737 23.8716 0.788536 24.8251C1.17146 25.8114 1.68398 26.6491 2.5187 27.4823C3.35342 28.3154 4.18898 28.8284 5.17586 29.2124C6.13058 29.5832 7.21994 29.8364 8.81678 29.9092C10.417 29.9819 10.9275 30 15.001 30C19.0745 30 19.5858 29.9831 21.1852 29.9092C22.7821 29.8364 23.8726 29.5832 24.8261 29.2124C25.8124 28.8284 26.6484 28.3158 27.4833 27.4823C28.3181 26.6488 28.8294 25.8114 29.2134 24.8251C29.5842 23.8716 29.8386 22.781 29.9101 21.1842C29.9829 19.5836 29.9998 19.0735 29.9998 15C29.9998 10.9265 29.9829 10.4152 29.9101 8.8158C29.8374 7.21884 29.5842 6.1278 29.2134 5.17488C28.8294 4.1886 28.3168 3.35256 27.4833 2.51772C26.6497 1.68288 25.8124 1.17048 24.8273 0.78756C23.8726 0.41676 22.782 0.16236 21.1864 0.09084C19.587 0.01812 19.0757 0 15.0022 0C10.9287 0 10.417 0.01692 8.81678 0.09084Z" fill="black"/>
</svg>
