<svg width="20" height="32" viewBox="0 0 20 32" fill="none" xmlns="http://www.w3.org/2000/svg">
<path d="M9.99956 4.84016C11.8852 4.84016 13.419 6.37396 13.419 8.25959C13.419 10.1436 11.8848 11.6774 9.99956 11.6774C8.11512 11.6774 6.58093 10.1436 6.58093 8.25959C6.58053 6.37357 8.11552 4.84016 9.99956 4.84016ZM9.99956 16.5152C14.5543 16.5152 18.2584 12.8124 18.2584 8.25959C18.2584 3.70444 14.5547 0 9.99956 0C5.4452 0 1.74076 3.70484 1.74076 8.25959C1.74076 12.8124 5.4452 16.5152 9.99956 16.5152ZM13.3407 23.2517C15.0397 22.8648 16.661 22.1934 18.1362 21.266C18.6793 20.9244 19.0644 20.3809 19.2068 19.7553C19.3492 19.1297 19.2373 18.4731 18.8956 17.93C18.7266 17.6609 18.5062 17.4276 18.247 17.2437C17.9878 17.0598 17.6949 16.9287 17.3851 16.8581C17.0752 16.7875 16.7544 16.7786 16.4411 16.832C16.1278 16.8855 15.8281 17.0001 15.5592 17.1695C12.1757 19.2966 7.82101 19.295 4.44033 17.1695C4.17143 17.0001 3.87176 16.8854 3.55848 16.8319C3.2452 16.7785 2.92446 16.7873 2.61461 16.858C2.30475 16.9286 2.01187 17.0597 1.75271 17.2436C1.49356 17.4276 1.27323 17.6608 1.10432 17.93C0.762535 18.473 0.650408 19.1294 0.792594 19.755C0.934781 20.3807 1.31964 20.9242 1.86252 21.266C3.3376 22.1931 4.95862 22.8644 6.65722 23.2517L2.04041 27.8693C1.5867 28.3232 1.33188 28.9387 1.33199 29.5804C1.3321 30.2222 1.58714 30.8376 2.041 31.2913C2.49486 31.745 3.11037 31.9998 3.75212 31.9997C4.39387 31.9996 5.00929 31.7446 5.46299 31.2907L9.99877 26.7541L14.5373 31.2911C14.7617 31.5158 15.0282 31.6941 15.3216 31.8157C15.615 31.9374 15.9294 32 16.247 32C16.5646 32 16.8791 31.9374 17.1725 31.8157C17.4658 31.6941 17.7323 31.5158 17.9567 31.2911C18.1818 31.0667 18.3604 30.8001 18.4822 30.5066C18.6041 30.2131 18.6668 29.8984 18.6668 29.5806C18.6668 29.2628 18.6041 28.9481 18.4822 28.6546C18.3604 28.361 18.1818 28.0945 17.9567 27.8701L13.3407 23.2517Z" fill="black"/>
</svg>
